<?xml version="1.0" encoding="UTF-8" standalone="no"?><!DOCTYPE svg PUBLIC "-//W3C//DTD SVG 1.1//EN" "http://www.w3.org/Graphics/SVG/1.1/DTD/svg11.dtd"><svg width="100%" height="100%" viewBox="0 0 5844 6107" version="1.1" xmlns="http://www.w3.org/2000/svg" xmlns:xlink="http://www.w3.org/1999/xlink" xml:space="preserve" xmlns:serif="http://www.serif.com/" style="fill-rule:evenodd;clip-rule:evenodd;stroke-miterlimit:10;"><rect id="Artboard1" x="0" y="0" width="5843.456" height="6106.2" style="fill:none;"/><g id="Layer-1" serif:id="Layer 1"><g id="Форма-6-copy" serif:id="Форма 6 copy"><path d="M2786.986,2269.389l-39.682,2210.314c0,0 -300.057,62.572 -432.522,127.966c-139.195,68.715 -384.386,261.111 -402.483,284.254l3.816,-30.858c0,0 203.088,-288.468 137.266,-431.648c0,-35.715 -106.038,-98.216 -244.248,-77.358c-127.869,19.25 -215.194,167.002 -215.194,167.002l-6.525,-48.572c0,0 52.28,-264.718 173.665,-343.933c123.109,-71.429 328.29,-71.429 328.29,-71.429c0,0 -4.719,-468.256 -31.146,-535.9c-24.129,-61.787 -179.615,-144.323 -277.2,-141.145c-97.584,3.179 -188.356,66.608 -277.2,160.431c-88.802,93.823 -137.061,235.289 -137.061,235.289c-5.417,-9.929 -24.088,-50.822 -24.088,-50.822c0,0 -20.067,-169.145 8.043,-275.004c0,0 41.036,-214.288 123.109,-321.433c246.217,-142.859 615.543,-107.144 615.543,-107.144c0,0 123.109,-321.433 123.109,-392.862l540.57,-408.362l33.937,51.215Z" style="stroke:#000;stroke-width:6.92px;"/></g><path id="Форма-6" serif:id="Форма 6" d="M2745.949,2218.179l-656.579,357.147c0,35.715 -41.036,392.862 -41.036,392.862c0,0 -328.29,-35.715 -533.471,107.144c-287.253,214.288 -164.145,642.865 -164.145,642.865l123.109,-250.003c41.036,-71.429 164.145,-142.859 287.253,-142.859c123.109,0 287.253,178.574 287.253,178.574c41.036,71.429 0,464.292 0,464.292c0,0 -164.145,0 -287.253,71.429c-164.145,107.144 -164.145,428.577 -164.145,428.577c0,0 123.109,-142.859 205.181,-178.574c82.072,-35.715 205.181,35.715 246.217,107.144c41.036,142.859 -82.072,392.862 -123.109,464.292c0,0 258.446,-258.253 394.44,-312.183c126.433,-50.144 393.907,-106.93 393.907,-106.93l32.378,-2223.779Z" style="fill:#fff;stroke:#000;stroke-width:25.39px;stroke-linejoin:round;stroke-miterlimit:2;"/><g id="Форма-1-copy" serif:id="Форма 1 copy"><path d="M2869.042,233.2l310.147,1234.968l-552.715,0l-15.587,-23.794l258.155,-1211.174Z" style="stroke:#000;stroke-width:7.09px;"/></g><path id="Форма-1" serif:id="Форма 1" d="M2869.058,218.153l246.217,1214.301l-492.435,0l246.217,-1214.301Z" style="fill:#fff;stroke:#000;stroke-width:25.39px;"/><path id="Форма-2-copy" serif:id="Форма 2 copy" d="M4879.832,2182.464l328.29,-285.718l-123.109,428.577l0,2071.455l205.181,321.433c-164.145,-214.288 -1600.412,964.298 -1477.304,1071.442c0,0 -656.579,-500.006 -1272.123,-428.577c-615.543,107.144 -1431.548,526.971 -1431.548,526.971c0,0 528.752,-562.686 898.077,-848.404c574.507,-392.862 902.797,-357.147 902.797,-357.147l82.072,-2428.603l341.791,-413.184l31.967,39.858l-4.432,87.608l697.616,-464.292l820.724,678.58Zm-1559.376,0l-123.109,2535.747c82.072,-35.715 820.724,214.288 779.688,250.003l492.435,-250.003l-82.072,-2107.17l-697.616,-607.151l-369.326,178.574Z" style="stroke:#000;stroke-width:6.92px;"/><path id="Форма-2-copy-2" serif:id="Форма 2 copy 2" d="M4469.47,2396.752l123.109,2321.459l-656.579,392.862l-820.724,-71.429l-123.109,-2785.75l410.362,-107.144l328.29,-214.288l738.652,464.292Zm-1066.941,-142.859l0,2428.603c82.072,-71.429 697.616,250.003 656.579,285.718l369.326,-321.433l-82.072,-1964.311l-697.616,-571.436l-246.217,142.859Z" style="stroke:#000;stroke-width:6.92px;"/><path id="Форма-2" serif:id="Форма 2" d="M4838.796,2146.749l328.29,-214.288l-164.145,357.147l0,2071.455l164.145,250.003c-164.145,-214.288 -1559.376,857.154 -1477.304,964.298c0,0 -615.543,-428.577 -1190.05,-357.147c-615.543,107.144 -1308.44,598.401 -1308.44,598.401c0,0 446.679,-634.115 774.969,-884.119c574.507,-392.862 861.76,-392.862 861.76,-392.862l82.072,-2392.888l410.362,-285.718l0,142.859l738.652,-535.721l779.688,678.58Zm-1518.34,35.715l0,2464.318c82.072,-71.429 697.616,214.288 697.616,250.003l328.29,-214.288l-41.036,-2035.741l-697.616,-607.151l-287.253,142.859Z" style="fill:#f5f5f5;stroke:#000;stroke-width:25.39px;"/><path id="Форма-4-copy" serif:id="Форма 4 copy" d="M3469.049,1587.206c0,0 -11.736,-24.286 -29.751,-19.786c-161.395,40.322 -976.703,265.896 -1308.891,233.753c-738.652,-107.144 -788.347,40.679 -1198.709,-280.754c-328.29,-214.288 -266.571,-80.501 -266.571,-80.501c0,0 121.631,399.648 667.659,624.544c310.316,127.823 553.004,184.717 792.491,182.538c490.095,-4.393 1384.808,-659.794 1343.772,-659.794Z" style="stroke:#000;stroke-width:6.92px;"/><path id="Форма-4" serif:id="Форма 4" d="M3443.565,1575.313c0,0 -1014.374,227.682 -1383.7,156.252c-1272.123,-178.574 -1506.603,-598.222 -1506.603,-598.222c0,0 99.841,870.547 1413,1049.121c656.579,71.429 1518.34,-607.151 1477.304,-607.151Z" style="fill:#fff;stroke:#000;stroke-width:25.39px;"/><g id="Форма-5" serif:id="Форма 5"><path d="M3943.422,2899.805l-80.349,8.219l12.065,66.844l-83.345,167.256l-158.851,0.292l-44.688,4.712l-23.637,34.189l23.637,40.289l75.958,-16.474l126.474,-8.547l-5.417,175l-56.096,12.857l108.007,121.707l16.332,2.411l115.189,-126.748l1.806,-27.212l-56.096,23.085l0.985,-126.419l105.012,0l-25.442,46.608l29.956,7.817l160.698,-124.994l-7.674,-22.208c0,0 -130.003,-65.237 -162.134,-87.335l3.816,70.168l-101.647,1.717l-2.585,-179.967l90.157,-0.511l9.52,-2.52l-71.649,-60.233Z" style="stroke:#000;stroke-width:6.99px;"/></g><path id="Форма-51" serif:id="Форма 5" d="M3840.631,2767.543l-152.244,184.038l83.427,0.929l-0.451,173.252l-158.851,0.286l-0.698,-64.929l-116.338,105.644l104.642,114.537l32.665,-44.465l139.072,-4.357l-7.017,117.644l-67.176,3.821l137.102,136.573l113.506,-130.395l-54.291,-4.036l0.985,-123.609l105.012,0l1.436,42.679l157.784,-116.68l-163.817,-102.108l3.816,68.608l-101.647,1.679l-2.585,-175.967l101.4,-1.107l-155.732,-182.038Z" style="fill:#fff;stroke:#000;stroke-width:25.39px;"/><g id="Форма-52" serif:id="Форма 5"><path d="M3905.259,3821.732l-113.999,31.084l20.887,65.785l-20.354,174.963l-158.851,0.292l-44.688,4.712l-23.637,34.189l23.637,40.289l75.958,-16.474l126.474,-8.547l-5.417,175l-56.096,12.857l108.254,121.597l16.086,2.52l115.189,-126.748l1.559,-26.884l-55.85,22.756l0.985,-126.419l105.012,0l-25.566,46.243l30.08,8.182l160.698,-124.994l-7.058,-20.893c0,0 -130.618,-66.552 -162.75,-88.65l3.816,70.168l-101.647,1.717l0.903,-172.004l79.077,-0.621l18.877,-9.059l-111.577,-91.061Z" style="stroke:#000;stroke-width:6.99px;"/></g><g id="Форма-53" serif:id="Форма 5"><path d="M3840.631,3718.984l-152.244,184.038l83.427,0.929l-0.451,173.252l-158.851,0.286l-0.698,-64.929l-116.338,105.644l104.642,114.537l32.665,-44.465l139.072,-4.357l-7.017,117.644l-67.176,3.821l137.102,136.573l113.506,-130.395l-54.291,-4.036l0.985,-123.609l105.012,0l1.436,42.679l157.784,-116.68c0,0 -121.426,-73.608 -163.817,-102.108l3.816,68.608l-101.647,1.679l-2.585,-175.967l101.4,-1.107l-155.732,-182.038Z" style="fill:#fff;stroke:#000;stroke-width:25.39px;"/></g><g><g id="Форма-7" serif:id="Форма 7"><path d="M2897.687,4808.296l-40.006,12.809l29.044,-100.507l98.912,56.236l-41.317,13.92l46.509,99.822l100.101,-35.116l-13.605,-30.058l92.165,22.764l-49.019,70.893l-10.933,-23.303l-101.018,35.592l45.922,100.042l28.073,-9.801l-24.282,77.051l-78.592,-41.006l28.202,-10.118l-46.069,-98.795l-93.983,31.965l13.652,30.607l-98.058,-29.041l52.346,-71.516l12.915,29.31l94.426,-32.72l-45.386,-99.03Z" style="stroke:#000;stroke-width:6.88px;stroke-linejoin:round;stroke-miterlimit:2;"/></g></g><g><g id="Форма-71" serif:id="Форма 7"><path d="M2865.861,1176.974l-21.871,-0.487l35.734,-43.152l34.938,43.134l-22.738,-0.173l0.454,55.283l55.392,-0.244l0.054,-16.581l39.006,26.056l-38.815,25.732l-0.142,-12.918l-55.933,0.319l0.126,55.292l15.524,-0.046l-28.356,32.749l-28.561,-32.519l15.655,-0.176l-0.467,-54.721l-51.788,-0.251l-0.151,16.851l-40.451,-30.022l40.537,-25.481l-0.22,16.11l52.163,-0.037l-0.09,-54.72Z" style="stroke:#000;stroke-width:6.91px;stroke-linejoin:round;stroke-miterlimit:2;"/></g></g></g></svg>